<svg version="1.1" viewBox="0.0 0.0 720.0603674540682 720.0" fill="none" stroke="none" stroke-linecap="square" stroke-miterlimit="10" xmlns:xlink="http://www.w3.org/1999/xlink" xmlns="http://www.w3.org/2000/svg"><clipPath id="p.0"><path d="m0 0l720.06036 0l0 720.0l-720.06036 0l0 -720.0z" clip-rule="nonzero"/></clipPath><g clip-path="url(#p.0)"><path fill="#000000" fill-opacity="0.0" d="m0 0l720.06036 0l0 720.0l-720.06036 0z" fill-rule="evenodd"/><path fill="#b0d2f1" d="m76.173225 200.8298l0 0c0 -59.177094 127.087685 -107.149605 283.85828 -107.149605l0 0c156.77057 0 283.85828 47.97251 283.85828 107.149605l0 0c0 59.177094 -127.08771 107.1496 -283.85828 107.1496l0 0c-156.77058 0 -283.85828 -47.972504 -283.85828 -107.1496z" fill-rule="evenodd"/><path fill="#ffffff" d="m101.58793 284.56424l0 0c0 -4.609619 3.7368317 -8.346466 8.346451 -8.346466l0 0l0 0c2.213623 0 4.3365784 0.879364 5.90184 2.4446106c1.5652618 1.5652771 2.4446182 3.6882324 2.4446182 5.9018555l0 149.92123c0 4.609619 -3.7368317 8.346466 -8.346458 8.346466l0 0l0 0c-4.609619 0 -8.346451 -3.736847 -8.346451 -8.346466z" fill-rule="evenodd"/><path fill="#ffffff" d="m136.5538 218.18022l0 0c0 -4.609619 3.7368317 -8.346466 8.346466 -8.346466l0 0l0 0c2.2136078 0 4.336563 0.879364 5.901825 2.4446259c1.5652618 1.5652618 2.4446259 3.6882172 2.4446259 5.90184l0 282.6772c0 4.609619 -3.7368317 8.346436 -8.346451 8.346436l0 0l0 0c-4.6096344 0 -8.346466 -3.7368164 -8.346466 -8.346436z" fill-rule="evenodd"/><path fill="#ffffff" d="m171.51968 285.0166l0 0c0 -4.609619 3.7368317 -8.346436 8.346451 -8.346436l0 0l0 0c2.213623 0 4.3365784 0.8793335 5.90184 2.4446106c1.5652618 1.5652466 2.4446259 3.688202 2.4446259 5.901825l0 149.92126c0 4.609619 -3.7368317 8.346466 -8.346466 8.346466l0 0l0 0c-4.609619 0 -8.346451 -3.736847 -8.346451 -8.346466z" fill-rule="evenodd"/><path fill="#ffffff" d="m264.1391 324.42374l0 0c0 -4.609619 3.736847 -8.346466 8.346466 -8.346466l0 0l0 0c2.213623 0 4.3365784 0.879364 5.901825 2.4446106c1.5652771 1.5652771 2.444641 3.6882324 2.444641 5.9018555l0 63.433075c0 4.609619 -3.736847 8.346436 -8.346466 8.346436l0 0l0 0c-4.609619 0 -8.346466 -3.7368164 -8.346466 -8.346436z" fill-rule="evenodd"/><path fill="#ffffff" d="m206.48557 218.17807l0 0c0 -4.6096344 3.7368317 -8.346466 8.346451 -8.346466l0 0l0 0c2.213623 0 4.3365784 0.879364 5.90184 2.4446259c1.5652618 1.5652618 2.4446259 3.6882172 2.4446259 5.90184l0 282.67715c0 4.609619 -3.736847 8.346466 -8.346466 8.346466l0 0l0 0c-4.609619 0 -8.346451 -3.736847 -8.346451 -8.346466z" fill-rule="evenodd"/><path fill="#ffffff" d="m235.31233 285.0166l0 0c0 -4.609619 3.736847 -8.346436 8.346466 -8.346436l0 0l0 0c2.2136078 0 4.336563 0.8793335 5.901825 2.4446106c1.5652771 1.5652466 2.4446259 3.688202 2.4446259 5.901825l0 149.92126c0 4.609619 -3.7368317 8.346466 -8.346451 8.346466l0 0l0 0c-4.609619 0 -8.346466 -3.736847 -8.346466 -8.346466z" fill-rule="evenodd"/><path fill="#ffffff" d="m292.96588 350.8427l0 0c0 -4.609619 3.736847 -8.346466 8.346466 -8.346466l0 0l0 0c2.2135925 0 4.336548 0.879364 5.901825 2.444641c1.5652771 1.5652466 2.4446106 3.688202 2.4446106 5.901825l0 10.582672c0 4.609619 -3.7368164 8.346466 -8.346436 8.346466l0 0l0 0c-4.609619 0 -8.346466 -3.736847 -8.346466 -8.346466z" fill-rule="evenodd"/><path fill="#ffffff" d="m321.79266 296.7355l0 0c0 -4.6096497 3.7368164 -8.346466 8.346436 -8.346466l0 0l0 0c2.213623 0 4.3365784 0.879364 5.9018555 2.4446106c1.5652466 1.5652771 2.4446106 3.6882324 2.4446106 5.9018555l0 118.80313c0 4.609619 -3.736847 8.346466 -8.346466 8.346466l0 0l0 0c-4.609619 0 -8.346436 -3.736847 -8.346436 -8.346466z" fill-rule="evenodd"/><path fill="#ffffff" d="m356.75854 171.35425l0 0c0 -4.609619 3.7368164 -8.346466 8.346436 -8.346466l0 0l0 0c2.213623 0 4.3365784 0.879364 5.9018555 2.4446259c1.5652466 1.5652618 2.4446106 3.6882172 2.4446106 5.90184l0 377.25983c0 4.609619 -3.736847 8.346497 -8.346466 8.346497l0 0l0 0c-4.609619 0 -8.346436 -3.7368774 -8.346436 -8.346497z" fill-rule="evenodd"/><path fill="#ffffff" d="m391.7244 257.3394l0 0c0 -4.6096344 3.736847 -8.346466 8.346466 -8.346466l0 0l0 0c2.213623 0 4.3365784 0.87934875 5.9018555 2.4446106c1.5652466 1.5652771 2.4446106 3.6882172 2.4446106 5.9018555l0 197.6063c0 4.609619 -3.736847 8.346436 -8.346466 8.346436l0 0l0 0c-4.609619 0 -8.346466 -3.7368164 -8.346466 -8.346436z" fill-rule="evenodd"/><path fill="#ffffff" d="m426.69028 139.84251l0 0c0 -4.609619 3.736847 -8.346451 8.346466 -8.346451l0 0l0 0c2.213623 0 4.3365784 0.87934875 5.901825 2.4446259c1.5652771 1.5652618 2.444641 3.6882172 2.444641 5.901825l0 440.31494c0 4.609619 -3.736847 8.346497 -8.346466 8.346497l0 0l0 0c-4.609619 0 -8.346466 -3.7368774 -8.346466 -8.346497z" fill-rule="evenodd"/><path fill="#ffffff" d="m461.65616 281.1735l0 0c0 -4.609619 3.736847 -8.346436 8.346466 -8.346436l0 0l0 0c2.213623 0 4.3365784 0.879364 5.901825 2.4446106c1.5652771 1.5652771 2.444641 3.6882324 2.444641 5.901825l0 149.92126c0 4.609619 -3.736847 8.346466 -8.346466 8.346466l0 0l0 0c-4.609619 0 -8.346466 -3.736847 -8.346466 -8.346466z" fill-rule="evenodd"/><path fill="#ffffff" d="m496.62204 179.23863l0 0c0 -4.609619 3.736847 -8.346451 8.346466 -8.346451l0 0l0 0c2.213623 0 4.3365784 0.87934875 5.901825 2.4446259c1.5652771 1.5652618 2.4446106 3.6882172 2.4446106 5.901825l0 361.51178c0 4.609619 -3.7368164 8.346497 -8.346436 8.346497l0 0l0 0c-4.609619 0 -8.346466 -3.7368774 -8.346466 -8.346497z" fill-rule="evenodd"/><path fill="#ffffff" d="m531.58795 214.79166l0 0c0 -4.609619 3.7368164 -8.346466 8.346436 -8.346466l0 0l0 0c2.213623 0 4.336548 0.879364 5.9018555 2.4446259c1.5652466 1.5652618 2.44458 3.6882172 2.44458 5.90184l0 282.67715c0 4.609619 -3.7368164 8.346466 -8.346436 8.346466l0 0l0 0c-4.609619 0 -8.346436 -3.736847 -8.346436 -8.346466z" fill-rule="evenodd"/><path fill="#ffffff" d="m566.55383 261.18246l0 0c0 -4.609619 3.7368164 -8.346451 8.346436 -8.346451l0 0l0 0c2.213623 0 4.336548 0.879364 5.9018555 2.4446259c1.5652466 1.5652771 2.44458 3.6882324 2.44458 5.901825l0 197.60632c0 4.609619 -3.7368164 8.346436 -8.346436 8.346436l0 0l0 0c-4.609619 0 -8.346436 -3.7368164 -8.346436 -8.346436z" fill-rule="evenodd"/><path fill="#ffffff" d="m594.9764 328.2668l0 0c0 -4.609619 3.7368164 -8.346436 8.346436 -8.346436l0 0l0 0c2.213623 0 4.336609 0.879364 5.9018555 2.4446106c1.5652466 1.5652771 2.444641 3.6882324 2.444641 5.901825l0 63.433075c0 4.609619 -3.7368774 8.346466 -8.346497 8.346466l0 0l0 0c-4.609619 0 -8.346436 -3.736847 -8.346436 -8.346466z" fill-rule="evenodd"/></g></svg>