<svg version="1.1" viewBox="0.0 0.0 718.7349081364829 644.0761154855643" fill="none" stroke="none" stroke-linecap="square" stroke-miterlimit="10" xmlns:xlink="http://www.w3.org/1999/xlink" xmlns="http://www.w3.org/2000/svg"><clipPath id="p.0"><path d="m0 0l718.7349 0l0 644.0761l-718.7349 0l0 -644.0761z" clip-rule="nonzero"/></clipPath><g clip-path="url(#p.0)"><path fill="#000000" fill-opacity="0.0" d="m0 0l718.7349 0l0 644.0761l-718.7349 0z" fill-rule="evenodd"/><path fill="#b0d2f1" d="m75.509186 181.77579l0 0c0 -59.177086 127.08768 -107.1496 283.85828 -107.1496l0 0c156.7706 0 283.85825 47.97251 283.85825 107.1496l0 0c0 59.177094 -127.08765 107.14963 -283.85825 107.14963l0 0c-156.7706 0 -283.85828 -47.972534 -283.85828 -107.14963z" fill-rule="evenodd"/><path fill="#ffffff" d="m100.92388 265.51022l0 0c0 -4.609619 3.7368393 -8.346466 8.346458 -8.346466l0 0l0 0c2.2136154 0 4.3365707 0.879364 5.90184 2.4446106c1.5652618 1.5652771 2.4446182 3.6882324 2.4446182 5.9018555l0 149.92126c0 4.609619 -3.7368393 8.346436 -8.346458 8.346436l0 0l0 0c-4.609619 0 -8.346458 -3.7368164 -8.346458 -8.346436z" fill-rule="evenodd"/><path fill="#ffffff" d="m135.88977 199.1262l0 0c0 -4.609619 3.7368317 -8.346451 8.346451 -8.346451l0 0l0 0c2.213623 0 4.3365784 0.87934875 5.90184 2.4446106c1.5652618 1.5652771 2.4446106 3.6882172 2.4446106 5.90184l0 282.6772c0 4.609619 -3.7368317 8.346466 -8.346451 8.346466l0 0l0 0c-4.609619 0 -8.346451 -3.736847 -8.346451 -8.346466z" fill-rule="evenodd"/><path fill="#ffffff" d="m170.85564 265.9626l0 0c0 -4.609619 3.736847 -8.346436 8.346466 -8.346436l0 0l0 0c2.2136078 0 4.336563 0.879364 5.90184 2.4446106c1.5652618 1.5652771 2.4446106 3.6882324 2.4446106 5.901825l0 149.92126c0 4.609619 -3.7368317 8.346466 -8.346451 8.346466l0 0l0 0c-4.609619 0 -8.346466 -3.736847 -8.346466 -8.346466z" fill-rule="evenodd"/><path fill="#ffffff" d="m263.47507 305.36972l0 0c0 -4.609619 3.736847 -8.346466 8.346466 -8.346466l0 0l0 0c2.2135925 0 4.336548 0.879364 5.901825 2.4446106c1.5652771 1.5652771 2.4446106 3.6882324 2.4446106 5.9018555l0 63.433075c0 4.609619 -3.7368164 8.346436 -8.346436 8.346436l0 0l0 0c-4.609619 0 -8.346466 -3.7368164 -8.346466 -8.346436z" fill-rule="evenodd"/><path fill="#ffffff" d="m205.82152 199.12405l0 0c0 -4.609619 3.736847 -8.346451 8.346466 -8.346451l0 0l0 0c2.2136078 0 4.336563 0.87934875 5.901825 2.4446106c1.5652771 1.5652618 2.4446259 3.6882172 2.4446259 5.90184l0 282.67715c0 4.609619 -3.7368317 8.346466 -8.346451 8.346466l0 0l0 0c-4.609619 0 -8.346466 -3.736847 -8.346466 -8.346466z" fill-rule="evenodd"/><path fill="#ffffff" d="m234.6483 265.9626l0 0c0 -4.609619 3.7368317 -8.346436 8.346451 -8.346436l0 0l0 0c2.213623 0 4.3365784 0.879364 5.90184 2.4446106c1.5652618 1.5652771 2.4446106 3.6882324 2.4446106 5.901825l0 149.92126c0 4.609619 -3.7368317 8.346466 -8.346451 8.346466l0 0l0 0c-4.609619 0 -8.346451 -3.736847 -8.346451 -8.346466z" fill-rule="evenodd"/><path fill="#ffffff" d="m292.30185 331.7887l0 0c0 -4.609619 3.7368164 -8.346466 8.346436 -8.346466l0 0l0 0c2.213623 0 4.3365784 0.879364 5.9018555 2.444641c1.5652466 1.5652466 2.4446106 3.688202 2.4446106 5.901825l0 10.582672c0 4.609619 -3.736847 8.346466 -8.346466 8.346466l0 0l0 0c-4.609619 0 -8.346436 -3.736847 -8.346436 -8.346466z" fill-rule="evenodd"/><path fill="#ffffff" d="m321.1286 277.6815l0 0c0 -4.609619 3.736847 -8.346466 8.346466 -8.346466l0 0l0 0c2.213623 0 4.3365784 0.879364 5.901825 2.4446106c1.5652771 1.5652771 2.444641 3.6882324 2.444641 5.9018555l0 118.80313c0 4.609619 -3.736847 8.346466 -8.346466 8.346466l0 0l0 0c-4.609619 0 -8.346466 -3.736847 -8.346466 -8.346466z" fill-rule="evenodd"/><path fill="#ffffff" d="m356.09448 152.30023l0 0c0 -4.609619 3.736847 -8.346451 8.346466 -8.346451l0 0l0 0c2.213623 0 4.3365784 0.87934875 5.901825 2.4446106c1.5652771 1.5652771 2.444641 3.6882172 2.444641 5.90184l0 377.25983c0 4.609619 -3.736847 8.346497 -8.346466 8.346497l0 0l0 0c-4.609619 0 -8.346466 -3.7368774 -8.346466 -8.346497z" fill-rule="evenodd"/><path fill="#ffffff" d="m391.06036 238.28537l0 0c0 -4.6096344 3.736847 -8.346466 8.346466 -8.346466l0 0l0 0c2.213623 0 4.3365784 0.879364 5.901825 2.4446259c1.5652771 1.5652618 2.444641 3.6882172 2.444641 5.90184l0 197.6063c0 4.609619 -3.736847 8.346466 -8.346466 8.346466l0 0l0 0c-4.609619 0 -8.346466 -3.736847 -8.346466 -8.346466z" fill-rule="evenodd"/><path fill="#ffffff" d="m426.02625 120.78851l0 0c0 -4.609627 3.736847 -8.346458 8.346466 -8.346458l0 0l0 0c2.213623 0 4.3365784 0.8793564 5.901825 2.4446182c1.5652771 1.5652618 2.4446106 3.6882172 2.4446106 5.90184l0 440.31494c0 4.609619 -3.7368164 8.346497 -8.346436 8.346497l0 0l0 0c-4.609619 0 -8.346466 -3.7368774 -8.346466 -8.346497z" fill-rule="evenodd"/><path fill="#ffffff" d="m460.99213 262.1195l0 0c0 -4.609619 3.736847 -8.346466 8.346466 -8.346466l0 0l0 0c2.213623 0 4.336548 0.87934875 5.901825 2.4446106c1.5652771 1.5652771 2.4446106 3.6882324 2.4446106 5.9018555l0 149.92126c0 4.609619 -3.7368164 8.346436 -8.346436 8.346436l0 0l0 0c-4.609619 0 -8.346466 -3.7368164 -8.346466 -8.346436z" fill-rule="evenodd"/><path fill="#ffffff" d="m495.958 160.18463l0 0c0 -4.609619 3.736847 -8.346466 8.346466 -8.346466l0 0l0 0c2.2135925 0 4.336548 0.879364 5.901825 2.4446259c1.5652771 1.5652618 2.444641 3.6882172 2.444641 5.90184l0 361.51178c0 4.609619 -3.736847 8.346497 -8.346466 8.346497l0 0l0 0c-4.609619 0 -8.346466 -3.7368774 -8.346466 -8.346497z" fill-rule="evenodd"/><path fill="#ffffff" d="m530.9239 195.73764l0 0c0 -4.609619 3.7368164 -8.346451 8.346436 -8.346451l0 0l0 0c2.213623 0 4.336609 0.87934875 5.9018555 2.4446106c1.5652466 1.5652618 2.444641 3.6882172 2.444641 5.90184l0 282.67715c0 4.609619 -3.7368774 8.346466 -8.346497 8.346466l0 0l0 0c-4.609619 0 -8.346436 -3.736847 -8.346436 -8.346466z" fill-rule="evenodd"/><path fill="#ffffff" d="m565.8898 242.12846l0 0c0 -4.609619 3.7368164 -8.346451 8.346436 -8.346451l0 0l0 0c2.213623 0 4.336609 0.87934875 5.9018555 2.4446106c1.5652466 1.5652771 2.444641 3.6882172 2.444641 5.90184l0 197.60631c0 4.609619 -3.7368774 8.346436 -8.346497 8.346436l0 0l0 0c-4.609619 0 -8.346436 -3.7368164 -8.346436 -8.346436z" fill-rule="evenodd"/><path fill="#ffffff" d="m594.3123 309.21283l0 0c0 -4.609619 3.7368774 -8.346466 8.346497 -8.346466l0 0l0 0c2.213623 0 4.336548 0.879364 5.9017944 2.4446106c1.5653076 1.5652771 2.444641 3.6882324 2.444641 5.9018555l0 63.433075c0 4.609619 -3.7368164 8.346436 -8.346436 8.346436l0 0l0 0c-4.609619 0 -8.346497 -3.7368164 -8.346497 -8.346436z" fill-rule="evenodd"/></g></svg>